<svg width="24" height="24" viewBox="0 0 24 24" fill="none" xmlns="http://www.w3.org/2000/svg">
  <path fill-rule="evenodd" clip-rule="evenodd" d="M12 0.297C5.373 0.297 0 5.67 0 12.297C0 17.623 3.438 22.063 8.207 23.628C8.807 23.734 9.027 23.396 9.027 23.107C9.027 22.848 9.02 22.203 9.016 21.332C5.67 22.016 4.967 19.629 4.967 19.629C4.422 18.324 3.633 17.959 3.633 17.959C2.546 17.252 3.713 17.27 3.713 17.27C4.914 17.359 5.563 18.514 5.563 18.514C6.623 20.374 8.38 19.872 9.057 19.573C9.165 18.784 9.475 18.27 9.818 17.979C7.144 17.688 4.344 16.631 4.344 11.851C4.344 10.511 4.803 9.43 5.556 8.589C5.434 8.295 5.044 7.051 5.664 5.347C5.664 5.347 6.673 5.033 9.012 6.718C9.961 6.454 10.982 6.321 12 6.316C13.018 6.321 14.04 6.454 14.988 6.718C17.327 5.033 18.336 5.347 18.336 5.347C18.956 7.051 18.566 8.295 18.444 8.589C19.197 9.43 19.656 10.511 19.656 11.851C19.656 16.641 16.853 17.684 14.172 17.969C14.574 18.301 14.938 18.969 14.938 19.978C14.938 21.544 14.93 22.81 14.93 23.107C14.93 23.397 15.146 23.739 15.754 23.624C20.526 22.062 24 17.621 24 12.297C24 5.67 18.627 0.297 12 0.297Z" fill="currentColor"/>
</svg>
